<svg xmlns="http://www.w3.org/2000/svg" xmlns:xlink="http://www.w3.org/1999/xlink" version="1.1" x="0px" y="0px" viewBox="0 0 209.813 296.91625" style="enable-background:new 0 0 209.813 237.533;" xml:space="preserve"><g><path d="M102.278,72.869V18.608h103.534v125.391H102.278V96.856c-1.33-0.362-2.662-0.793-3.999-1.331V148h16.741l-0.585,4h-7.957v9   h6.643l-10.99,75.231l8.906,1.303L122.218,161h26.761v8h9v-8h26.761l11.181,76.533l8.906-1.303L193.836,161h6.643v-9h-7.957   l-0.585-4h17.877v-1.999V14.609h-51.835V0h-9v14.609H98.279v55.262C99.563,70.959,100.909,71.982,102.278,72.869z M123.532,152   l0.584-4h24.862v4H123.532z M183.425,152h-25.446v-4h24.862L183.425,152z"/><path d="M178.732,115.173c-0.126,0.026-0.221,0.036-0.311,0.045c0.172-0.451,0.187-1.151,0.801-1.886   c1.368-2.601,3.53-5.414,5.236-9.215c0.702-1.859,2.013-4.389,0.549-8.11c-0.912-1.782-2.209-2.849-3.666-3.622   c-2.184-0.837-3.817-0.635-5.055-0.413c-4.64,1.024-8.289,3.28-11.239,4.555c-7.232,2.972-14.052,5.995-20.521,7.43   c-3.188,0.726-6.237,0.914-8.501,0.425c-2.83-1.02-1.648-0.209-2.008-1.957c2.191-8.461,8.319-15.355,7.795-15.137   c-0.018-0.016,1.461-2.179,4.066-5.878c-1.186-1.241-1.732-2.404-1.336-3.19c0.451-0.895,2.02-1.1,4.094-0.704   c1.248-1.754,2.637-3.694,4.163-5.812c3.194-5.045,7.625-9.618,10.265-18.373c0.188-1.202,0.474-2.842-0.564-4.861   c-1.184-1.972-3.015-2.849-4.465-3.064c-3.17-0.528-5.367,0.459-7.34,1.276c-3.874,1.827-7.055,4.172-10.186,6.521   c-3.112,2.355-6.081,4.805-9.025,7.029c-1.072,0.807-2.148,1.597-3.204,2.286c0.627-0.109,1.263-0.185,1.915-0.185   c1.857,0,3.672,0.493,5.298,1.391c2.836-1.954,5.589-3.977,8.369-5.877c3.092-2.117,6.267-4.165,9.303-5.423   c1.275-0.54,2.627-0.813,3.288-0.729c-0.005,0.085,0,0.193,0.021,0.344c-1.683,5.047-6.478,10.877-9.692,15.252   c-1.857,2.391-3.544,4.587-5.028,6.536l2.502,1.262l-2.4,4.762l-2.126-1.072c-0.059,0.103-0.108,0.211-0.171,0.312   c-2.893,4.708-6.021,8.476-9.486,11.424c-1.44,2.746-2.955,6.338-4.215,11.039c-0.21,1.947-0.027,4.849,1.922,7.256   c2.063,2.477,4.546,3.095,6.475,3.566c4.213,0.859,8.252,0.363,12.052-0.506c7.598-1.781,14.814-5.202,21.685-8.216   c3.987-1.94,6.99-3.759,9.738-4.476c0.674-0.283,1.483-0.967,0.379,2.364c-1.067,2.851-2.978,5.759-4.474,9.095   c-0.54,1.758-1.986,3.362-0.813,7.042c1.893,3.667,5.673,3.263,7.232,2.714c11.989-6.204,15.033-13.158,14.799-13.726   C194.079,105.197,187.698,111.713,178.732,115.173z"/><path d="M120.813,67.578c1.13-1.84,2.737-3.246,4.603-4.143c-0.088-4.535,3.583-10.804,6.349-14.751   c6.644-9.214,11.232-15.616,10.588-16.018c-0.333-0.163-5.518,5.272-13.117,14.137c-2.839,4.328-7.796,8.588-7.976,16.688   l-10.338-5.212l-2.401,4.762l11.485,5.791C120.272,68.434,120.539,68.024,120.813,67.578z"/><path d="M151.005,85.024c4.357,2.196,8.526,2.711,9.314,1.149c0.787-1.561-2.105-4.608-6.463-6.805   c-1.105-0.559-2.199-1.006-3.229-1.34l-3.138,4.812C148.483,83.604,149.675,84.354,151.005,85.024z"/><path d="M6.734,97.404c2.248,0.961,4.359,1.194,6.471,1.209c3.957-0.027,8.199-0.908,13.67-2.561   c0.303-0.094,0.623-0.198,0.932-0.296v16.007L17.079,222.735c-0.657,6.798,4.321,12.839,11.118,13.495   c6.795,0.657,12.838-4.317,13.496-11.115l8.816-91.19h8.64l8.865,91.69c0.656,6.798,6.701,11.772,13.496,11.115   c6.796-0.656,11.775-6.697,11.117-13.495L81.898,112.264V80.623c3.156,3.086,6.73,6.115,10.755,8.648   c5.12,3.203,11.106,5.72,17.894,5.741c0.041,0.001,0.082,0.001,0.122,0.001c4.78,0,9.821-1.437,14.297-4.405   c4.536-2.982,8.513-7.352,12.036-13.088c2.313-3.764,1.136-8.691-2.629-11.004c-3.765-2.313-8.691-1.133-11.003,2.631   c-2.615,4.26-5.112,6.73-7.187,8.088c-2.098,1.348-3.758,1.754-5.637,1.779c-2.592,0.022-5.877-1.076-9.387-3.291   c-5.258-3.271-10.615-8.82-14.413-13.519c-1.909-2.347-3.458-4.475-4.509-5.989c-0.373-0.537-0.682-0.994-0.925-1.36   c-1.159-2.804-3.919-4.779-7.144-4.779H35.535c-0.869,0-1.703,0.15-2.483,0.415c-0.351,0.096-0.685,0.196-0.996,0.3   c-3.415,1.275-5.99,3.148-9.222,5.594c-4.688,3.659-9.882,8.522-14.203,13.563c-2.158,2.531-4.094,5.088-5.648,7.752   C1.486,80.409,0.098,83.088,0,87.104c-0.004,1.46,0.261,3.151,1.032,4.816C2.158,94.463,4.514,96.494,6.734,97.404z M27.807,73.135   v5.724c-2.069,0.753-3.942,1.384-5.611,1.893c-0.81,0.252-1.575,0.474-2.293,0.667C22.102,78.731,24.97,75.719,27.807,73.135z"/><circle cx="64.687" cy="23.376" r="22.5"/></g></svg>