<svg xmlns="http://www.w3.org/2000/svg" xmlns:xlink="http://www.w3.org/1999/xlink" version="1.1" x="0px" y="0px" viewBox="0 0 1255.264 484.8775" style="enable-background:new 0 0 1255.264 387.902;" xml:space="preserve"><g><ellipse transform="matrix(0.2268 -0.9739 0.9739 0.2268 -121.9813 224.6893)" cx="80.519" cy="189.169" rx="22.494" ry="22.495"/><path d="M69.389,321.406c0.688,0.762,1.381,1.547,2.079,2.357c11.039,12.765,23.167,31.209,29.083,54.693   c1.43,5.668,6.521,9.446,12.111,9.446c1.012,0,2.04-0.124,3.066-0.383c6.693-1.69,10.752-8.485,9.062-15.178l-0.002-0.002   c-7.396-29.26-22.496-51.447-35.646-66.345c-6.328-7.158-12.225-12.656-16.717-16.491c-1.932-16.92,2.748-36.387,5.425-50.06   c0.038-0.131,0.069-0.263,0.104-0.393c8.664,4.145,21.023,8.136,36.387,8.136c8.361,0,17.582-1.186,27.486-4.112   c4.236-1.251,6.658-5.699,5.406-9.938c-1.25-4.236-5.7-6.657-9.936-5.406c-8.45,2.493-16.101,3.454-22.956,3.454   c-12.99,0-23.202-3.465-30.177-6.9c-3.481-1.716-6.139-3.421-7.871-4.653c-0.867-0.616-1.504-1.113-1.896-1.436   c-0.197-0.159-0.332-0.275-0.407-0.338c-0.032-0.029-0.053-0.047-0.06-0.054c-0.002-0.001-0.002-0.002-0.003-0.002   c-1.27-1.149-2.809-1.809-4.39-2.002c-0.361-0.132-0.729-0.253-1.108-0.348c-7.288-1.817-17.37,1.303-23.298,11.364   c6.748-3.163,11.953-4.639,13.838-5.116l0.013-0.002l0.083-0.021c0.766-0.184,1.551-0.275,2.333-0.275   c4.641,0,8.639,3.154,9.722,7.67c1.281,5.365-2.037,10.771-7.396,12.055l-0.186,0.05c-0.207,0.055-0.539,0.148-0.983,0.281   c-0.847,0.257-2.23,0.704-3.979,1.367c-3.129,1.193-7.947,3.297-13.107,6.542c-3.242,2.048-6.209,4.268-8.9,6.653   c-1.393,9.74-1.24,19.447,0.233,32.101c1.511,7.775,4.866,12.174,8.963,14.639c0.062,0.993,0.101,2.081,0.101,3.258   c-0.006,6.846-1.272,16.406-6.656,26.651c-5.419,10.241-14.93,21.477-32.889,31.735c-6,3.414-8.098,11.046-4.684,17.047   c3.415,6,11.048,8.098,17.047,4.684c21.617-12.264,35.037-27.27,42.654-41.833C65.565,336.264,68.03,328.457,69.389,321.406z"/><path d="M61.979,239.544c0.474-0.143,0.826-0.241,1.045-0.3c0.11-0.029,0.186-0.05,0.225-0.059l0.011-0.004   c4.297-1.028,6.944-5.346,5.917-9.643c-1.03-4.297-5.348-6.944-9.645-5.916c-0.544,0.142-11.201,2.704-23.644,10.507   c-12.388,7.758-26.792,21.119-33.159,42.486c-1.264,4.232,1.144,8.689,5.379,9.953c0.763,0.227,1.533,0.336,2.29,0.336   c3.446,0,6.63-2.245,7.665-5.715c4.966-16.635,16.061-27.023,26.342-33.516c5.113-3.217,9.959-5.385,13.463-6.719   C59.622,240.289,61.038,239.828,61.979,239.544z"/><rect x="431.574" y="242.621" width="405.916" height="144.015"/><path d="M871.429,114.505c0.935-4.318-1.812-8.575-6.13-9.507c-21.924-4.817-32.367-14.945-38.112-23.729   c-2.838-4.411-4.406-8.551-5.248-11.513c-0.055-0.19-0.098-0.361-0.147-0.542c-0.042-1.849-0.369-3.62-1.034-5.216   c-0.59-2.182-2.067-3.965-3.997-4.981c-6.852-5.071-19.121-6.018-29.782,3.971c-15.456,14.644-22.889,25.566-30.997,46.411   c-4.68,15.409,3.891,22.071,11.922,26.269c1.772,3.274,8.658,17.491,8.671,42.66c-0.002,12.012-1.576,26.553-6.122,43.682   c-1.773,6.671,2.2,13.517,8.874,15.289c1.074,0.285,2.152,0.422,3.214,0.422c5.53,0,10.589-3.698,12.075-9.295   c5.082-19.142,6.96-35.89,6.96-50.098c0.014-32.801-10.009-51.842-12.551-56.103c3.291-6.788,7.679-13.344,12.218-19.406   c-0.134-0.285-0.268-0.569-0.394-0.848c-6.098-13.339-6.768-24.128-6.771-28.148c0-0.659,0.019-1.077,0.027-1.231   c0.294-5.287,4.677-9.438,9.979-9.438c0.186,0,0.371,0.004,0.558,0.015c5.475,0.302,9.71,5.006,9.438,10.483v0.137   c-0.002,0.952,0.108,9.275,4.957,19.861c1.231,2.675,2.658,5.271,4.262,7.792c6.408,6.052,14.995,11.678,26.238,15.698   l-2.996,7.596c1.564,1.067,3.173,2.114,4.843,3.128c4.712,2.856,6.222,9.018,3.365,13.734c-1.828,3.015-5.029,4.816-8.561,4.816   c-1.82,0-3.608-0.501-5.171-1.446c-0.669-0.405-1.325-0.812-1.975-1.221l-0.284,0.72l36.278,14.31l14.31-36.278l-18.148-7.158   C871.286,115.07,871.368,114.792,871.429,114.505z"/><path d="M872.991,44.303c0.798-1.623-5.56-6.477-15.212-11.92c-0.715-0.403-1.447-0.809-2.195-1.217   c-0.363-2.05-1.014-4.083-1.981-6.043c-5.504-11.14-18.994-15.708-30.135-10.207c-11.138,5.5-15.708,18.993-10.203,30.132   c5.503,11.138,18.991,15.707,30.132,10.204c4.977-2.459,8.638-6.517,10.679-11.244c-2.511-1.783-5.209-3.621-8.049-5.399   c-7.11-4.451-13.258-8.892-17.394-12.432c4.255,2.727,9.775,5.825,15.942,8.863c7.71,3.8,14.883,6.747,20.103,8.382   C869.38,44.894,872.499,45.302,872.991,44.303z"/><path d="M400.951,74.739c5.622-3.957,10.598-7.872,14.38-11.226c-3.538,4.138-8.924,9.477-15.262,14.977   c-2.53,2.196-4.911,4.43-7.116,6.58c2.749,4.354,6.993,7.796,12.292,9.456c11.858,3.711,24.476-2.892,28.189-14.747   c3.713-11.856-2.892-24.479-14.747-28.188c-11.856-3.709-24.478,2.893-28.189,14.75c-0.653,2.086-0.98,4.196-1.022,6.277   c-0.678,0.519-1.338,1.033-1.98,1.542c-8.693,6.872-14.223,12.652-13.184,14.131c0.641,0.91,3.659,0.025,8.076-2.158   C387.292,83.709,393.922,79.688,400.951,74.739z"/><path d="M675.438,18.706c6.83-0.788,13.071-1.849,17.996-2.987c-5.085,1.943-12.368,4.059-20.563,5.86   c-3.27,0.719-6.426,1.542-9.388,2.375c0.332,5.139,2.407,10.192,6.269,14.183c8.642,8.928,22.881,9.16,31.809,0.521   c8.93-8.639,9.162-22.883,0.522-31.809c-8.642-8.926-22.883-9.16-31.812-0.52c-1.569,1.519-2.854,3.217-3.885,5.022   c-0.835,0.131-1.654,0.266-2.456,0.404c-10.938,1.882-18.574,4.318-18.368,6.117c0.128,1.106,3.202,1.771,8.125,1.966   C659.153,20.055,666.899,19.692,675.438,18.706z"/><path d="M700.756,58.212c2.033,0,3.996,0.614,5.675,1.774c4.535,3.131,5.679,9.37,2.548,13.905l-0.006,0.013l-0.065,0.089   c-1.071,1.51-6.656,9.163-16.672,19.283c3.435,10.457,6.504,22.054,6.618,32.933c0.003,0.04,0.008,0.076,0.011,0.115   c-3.874,8.155-10.229,25.545-10.219,51.67c0,14.206,1.876,30.955,6.964,50.099c1.486,5.597,6.544,9.293,12.074,9.294   c1.062,0,2.141-0.137,3.215-0.421c6.673-1.774,10.645-8.62,8.873-15.291c-4.551-17.129-6.123-31.668-6.125-43.681   c0.002-15.191,2.519-26.359,4.893-33.581c0.977-2.965,1.929-5.25,2.681-6.874c6.472-2.331,12.084-7.314,12.646-19.016   c-0.627-22.357-3.954-35.143-13.586-54.132c-7.081-13.77-19.995-16.582-28.137-13.253c-6.96,2.847-9.421,12.263-7.328,20.833   c5.025-5.654,7.616-9.317,7.681-9.412C694.385,59.826,697.465,58.212,700.756,58.212z"/><rect x="590.947" y="167.986" width="64.496" height="64.496"/><rect x="518.951" y="167.986" width="64.496" height="64.496"/><path d="M590.947,161.148h64.496v-37.863c-1.524,0.996-3.068,1.989-4.656,2.972c-1.585,0.977-3.398,1.494-5.249,1.494   c-3.496,0-6.682-1.774-8.516-4.743c-1.404-2.272-1.84-4.955-1.229-7.554c0.615-2.602,2.206-4.808,4.48-6.21   c5.478-3.383,10.532-6.876,15.169-10.358v-2.233h-64.496V161.148z"/><path d="M638.723,121.956c1.514,2.447,4.133,3.794,6.813,3.794c1.435,0,2.887-0.386,4.197-1.195   c38.043-23.543,57.187-51.231,57.598-51.797c2.51-3.636,1.598-8.617-2.038-11.127c-3.636-2.512-8.618-1.598-11.129,2.038v-0.002   c0,0,0,0.002-0.017,0.024c-0.711,1.037-18.637,26.143-52.825,47.254C637.563,113.267,636.4,118.198,638.723,121.956z"/><path d="M390.873,170.415c2.46,0,4.827,0.905,6.665,2.547c1.99,1.781,3.166,4.231,3.315,6.899c0.066,1.205-0.092,2.388-0.438,3.509   l8.642,3.408l5.403-13.699c-0.756-0.598-1.439-1.293-2.006-2.102c-1.528-2.192-2.115-4.847-1.648-7.477   c0.468-2.63,1.932-4.921,4.123-6.45c2.934-2.057,5.561-4.308,7.906-6.76l-2.758-1.088c4.446-3.482,8.139-7.171,11.177-10.91   c0.785-1.572,1.505-3.2,2.151-4.894c3.3-8.681,3.785-16.907,3.779-21.04c0-2.993-0.236-4.818-0.238-4.835   c-0.772-5.45,3.035-10.521,8.487-11.301c0.474-0.068,0.95-0.101,1.424-0.101c4.94,0,9.191,3.69,9.89,8.586   c0.016,0.111,0.435,3.002,0.438,7.647c-0.005,5.549-0.613,13.555-3.172,22.395c4.684,4.549,9.32,9.485,13.289,14.728l-26.306,20.39   c-2.749,2.132-4.466,5.251-4.788,8.716c-0.324,3.467,0.783,6.849,3.091,9.455l39.001,44c2.469,2.786,5.906,4.208,9.357,4.208   c2.949,0,5.908-1.037,8.288-3.145c5.166-4.579,5.643-12.479,1.064-17.645l-30.145-34.01l20.641-15.997   c1.341-0.72,2.773-1.709,4.369-2.872c7.407-5.396,15.253-13.33,8.114-28.097c-11.238-19.338-20.272-28.977-37.81-41.052   c-12.074-8.215-24.045-5.386-30.031,0.682c-1.744,1.296-2.927,3.273-3.181,5.509c-0.422,1.709-0.479,3.541-0.224,5.408   c-0.403,3.689-1.598,9.544-5.014,15.863c-3.794,6.958-10.132,14.667-21.746,21.173l-14.896-5.875l-14.31,36.278l8.674,3.422   c0.658-0.705,1.315-1.415,1.967-2.142C385.311,171.631,388.029,170.415,390.873,170.415z"/><path d="M846.186,144.417c2.705,0,5.345-1.372,6.851-3.854c2.29-3.78,1.084-8.699-2.694-10.988   c-18.922-11.498-28.239-24.479-33.124-35.09c-4.858-10.604-5.146-18.959-5.141-20.663c-0.002-0.138,0.002-0.227,0.002-0.269   c0.219-4.395-3.153-8.145-7.549-8.386c-4.411-0.243-8.185,3.135-8.427,7.547l-0.003-0.002c-0.008,0.139-0.025,0.517-0.025,1.109   c0.005,3.366,0.52,14.033,6.592,27.32c6.048,13.28,17.788,29.06,39.382,42.117C843.344,144.044,844.774,144.417,846.186,144.417z"/><path d="M445.717,98.205c-4.371,0.624-7.409,4.671-6.789,9.041h-0.001v0.008h0.001l0.001,0v0h-0.001   c0.033,0.259,0.256,2.15,0.256,5.104c0.006,5.075-0.678,13.253-3.91,21.756c-3.256,8.523-8.88,17.343-19.201,24.577   c-3.623,2.529-4.509,7.516-1.978,11.139c1.556,2.227,4.04,3.419,6.565,3.419c1.582,0.001,3.179-0.467,4.574-1.441   c13.238-9.227,20.881-21.094,25-32.023c4.142-10.95,4.943-20.987,4.949-27.427c-0.002-4.341-0.373-7.061-0.417-7.366   C454.142,100.619,450.091,97.58,445.717,98.205z"/><path d="M318.211,155.735l-14.308,19.143c1.55,8.566,8.023,15.818,17.04,17.917c12.1,2.818,24.191-4.707,27.01-16.807   c2.818-12.1-4.707-24.191-16.807-27.008c-3.748-0.873-7.495-0.751-10.966,0.189C320.32,151.524,319.637,153.828,318.211,155.735z"/><path d="M334.88,225.822c-5.837,1.124-9.955,1.267-11.582,1.267c-0.425,0-0.694-0.008-0.791-0.013   c-5.483-0.184-9.817-4.817-9.633-10.326c0.182-5.422,4.57-9.668,9.986-9.668l0.314,0.007l0.123-0.003   c0.592,0,4.516-0.06,10.552-1.493c-1.767-3.242-4.417-5.671-7.84-6.523c-8.537-2.129-20.912,2.508-25.947,17.15   c-6.805,20.174-8.268,33.305-5.682,55.52c2.112,10.871,7.829,15.151,14.142,16.752c2.546,8.387,5.723,22.19,5.701,38.757   c-0.002,13.219-1.979,28.171-7.764,43.8c-2.397,6.475,0.908,13.666,7.38,16.064c1.431,0.53,2.897,0.781,4.339,0.781   c5.082,0.001,9.857-3.119,11.725-8.163c6.956-18.782,9.321-36.776,9.319-52.482c-0.03-25.05-5.912-44.317-9.09-52.939   C327.981,258.221,332.096,239.612,334.88,225.822z"/><path d="M323.114,209.088c-4.406-0.137-8.093,3.32-8.241,7.729c-0.148,4.415,3.313,8.114,7.729,8.264v-0.002   c0.086,0.004,0.321,0.01,0.695,0.01c2.779,0,12.713-0.396,26.229-5.545c13.511-5.136,30.568-15.073,47.303-33.792   c2.946-3.294,2.665-8.35-0.626-11.297c-3.293-2.946-8.35-2.665-11.296,0.629c-15.036,16.786-29.751,25.183-41.077,29.509   c-11.315,4.313-19.283,4.496-20.533,4.496c-0.095,0-0.156,0-0.184-0.002V209.088z"/><path d="M240.557,171.329c0.19,10.054,7.152,19.083,17.393,21.467c2.436,0.567,4.872,0.709,7.232,0.484l19.948-26.691   c-1.646-8.431-8.069-15.534-16.978-17.608c-4.855-1.131-9.707-0.593-13.962,1.234c-0.089,1.984-0.763,3.895-1.98,5.52   L240.557,171.329z"/><path d="M259.87,227.085c-2.174,0-4.243-0.689-5.982-1.997c-2.136-1.595-3.525-3.931-3.908-6.573   c-0.384-2.644,0.287-5.279,1.889-7.419l9.248-12.375c-8.381-1.057-19.374,3.91-24.047,17.499   c-6.805,20.174-8.268,33.305-5.682,55.52c2.112,10.871,7.83,15.151,14.141,16.752c2.547,8.387,5.725,22.19,5.703,38.757   c-0.003,13.219-1.98,28.171-7.765,43.8c-2.397,6.475,0.905,13.666,7.38,16.064c1.432,0.53,2.898,0.781,4.34,0.781   c5.08,0.001,9.856-3.119,11.725-8.163c6.955-18.782,9.32-36.776,9.318-52.482c-0.029-25.05-5.912-44.317-9.09-52.939   c-2.299-17.188,2.558-37.256,5.297-51.247c0.689-2.389,0.992-4.889,0.943-7.34l-5.492,7.348   C266.008,225.583,263.012,227.085,259.87,227.085z"/><path d="M253.469,212.294c-2.646,3.538-1.921,8.552,1.617,11.196c1.438,1.075,3.117,1.594,4.783,1.594   c2.438,0,4.844-1.109,6.414-3.212l50.326-67.333c2.644-3.538,1.92-8.553-1.618-11.197c-3.538-2.645-8.553-1.92-11.197,1.618   L253.469,212.294z"/><path d="M202.153,148.981c-12.1-2.818-24.193,4.707-27.012,16.805c-2.816,12.1,4.709,24.193,16.809,27.01   c2.436,0.567,4.871,0.709,7.23,0.484l19.95-26.69C217.485,158.158,211.061,151.055,202.153,148.981z"/><path d="M206.436,223.061c0.689-2.39,0.992-4.892,0.943-7.344l-5.496,7.352c-1.876,2.514-4.873,4.016-8.015,4.016   c-2.173,0-4.239-0.689-5.982-1.994c-4.414-3.296-5.322-9.575-2.023-13.995l9.25-12.376c-8.381-1.055-19.373,3.912-24.045,17.5   c-6.805,20.174-8.268,33.305-5.682,55.52c2.112,10.871,7.83,15.151,14.142,16.752c2.546,8.387,5.723,22.192,5.701,38.757   c-0.002,13.219-1.98,28.171-7.764,43.8c-2.397,6.475,0.907,13.666,7.38,16.064c1.431,0.53,2.898,0.781,4.34,0.781   c5.08,0.001,9.856-3.119,11.724-8.163c6.956-18.782,9.321-36.776,9.319-52.482c-0.029-25.05-5.912-44.317-9.09-52.939   C198.84,257.121,203.697,237.052,206.436,223.061z"/><path d="M189.087,223.49c1.438,1.075,3.117,1.594,4.783,1.594c2.438,0,4.843-1.109,6.414-3.212l50.327-67.333   c2.645-3.538,1.921-8.553-1.62-11.197c-3.539-2.645-8.553-1.92-11.197,1.618l-50.326,67.334   C184.823,215.832,185.548,220.845,189.087,223.49z"/><ellipse transform="matrix(0.9739 -0.2268 0.2268 0.9739 -12.2917 271.3535)" cx="1174.748" cy="189.169" rx="22.495" ry="22.494"/><path d="M1248.944,364.405c-17.96-10.259-27.473-21.493-32.89-31.735c-5.386-10.246-6.65-19.808-6.657-26.652   c0-1.174,0.039-2.263,0.101-3.255c4.098-2.464,7.456-6.864,8.967-14.641c1.472-12.643,1.627-22.345,0.237-32.077   c-2.436-2.162-5.088-4.194-7.976-6.081c-9.907-6.464-19.082-8.811-19.168-8.832c-5.378-1.289-8.697-6.696-7.415-12.059   c1.082-4.519,5.08-7.674,9.722-7.674c0.78,0,1.567,0.093,2.333,0.276l0.016,0.005l0.097,0.024   c1.889,0.481,7.097,1.964,13.827,5.116c-5.928-10.065-16.012-13.188-23.302-11.369c-0.381,0.095-0.749,0.216-1.11,0.349   c-1.58,0.193-3.119,0.852-4.388,2.001l-0.001-0.001c-0.084,0.079-3.955,3.485-10.899,6.806c-6.957,3.325-16.93,6.578-29.517,6.578   c-6.854,0-14.507-0.96-22.952-3.455c-4.238-1.251-8.688,1.17-9.938,5.408c-1.253,4.237,1.168,8.686,5.406,9.938   c9.9,2.926,19.125,4.113,27.484,4.11c0.004,0,0.008,0,0.012,0c15.361,0,27.716-3.989,36.378-8.138   c0.036,0.133,0.067,0.266,0.105,0.396c2.677,13.672,7.357,33.14,5.425,50.059c-4.492,3.836-10.389,9.335-16.718,16.493   c-13.152,14.896-28.252,37.081-35.647,66.344c-1.69,6.694,2.367,13.491,9.061,15.18c1.026,0.259,2.055,0.382,3.066,0.382   c5.59,0.001,10.682-3.777,12.111-9.443c6.104-24.241,18.837-43.118,30.146-55.91c0.34-0.386,0.678-0.765,1.015-1.139   c1.36,7.05,3.824,14.857,8.049,22.893c7.618,14.563,21.038,29.569,42.655,41.832c6.001,3.414,13.633,1.316,17.047-4.682   C1257.04,375.452,1254.944,367.818,1248.944,364.405z"/><path d="M1186.09,229.539c-1.029,4.298,1.619,8.614,5.916,9.644l0.009,0.003c0.619,0.145,9.846,2.606,19.807,9.104   c10.013,6.542,20.567,16.779,25.381,32.899c1.034,3.47,4.218,5.715,7.664,5.716c0.757,0,1.526-0.108,2.289-0.337   c4.233-1.261,6.644-5.718,5.382-9.952c-6.369-21.367-20.774-34.728-33.162-42.486c-12.44-7.805-23.098-10.365-23.642-10.507   C1191.434,222.592,1187.118,225.242,1186.09,229.539z"/><path d="M935.088,149.17c-3.472-0.94-7.219-1.062-10.967-0.189c-12.1,2.816-19.625,14.908-16.807,27.008   c2.818,12.1,14.91,19.625,27.01,16.807c9.016-2.099,15.488-9.349,17.038-17.913l-14.31-19.146   C935.586,153.774,934.954,151.444,935.088,149.17z"/><path d="M929.258,199.069c-3.423,0.853-6.074,3.281-7.841,6.524c6.037,1.434,9.959,1.493,10.551,1.493h0.108l0.326-0.004   c5.424,0,9.81,4.248,9.988,9.67c0.089,2.668-0.866,5.212-2.692,7.163c-1.825,1.949-4.299,3.073-6.97,3.161   c-0.13,0.004-0.377,0.011-0.761,0.011c-1.628,0-5.744-0.142-11.58-1.266c2.782,13.787,6.898,32.393,4.748,48.479   c-3.178,8.619-9.064,27.891-9.094,52.947c-0.002,15.705,2.362,33.699,9.322,52.482c1.867,5.043,6.643,8.161,11.724,8.161   c1.441,0,2.908-0.251,4.34-0.78c6.474-2.398,9.777-9.59,7.379-16.064c-5.789-15.628-7.763-30.581-7.766-43.8   c-0.002-14.127,2.281-26.241,4.543-34.71c0.391-1.463,0.78-2.81,1.156-4.046c6.313-1.599,12.033-5.879,14.146-16.753   c2.586-22.215,1.123-35.346-5.682-55.52C950.17,201.577,937.795,196.94,929.258,199.069z"/><path d="M932.662,225.079c4.415-0.148,7.877-3.846,7.73-8.261c-0.146-4.411-3.835-7.867-8.241-7.73v-0.002   c-0.026,0.002-0.09,0.002-0.184,0.002c-1.251,0-9.218-0.184-20.536-4.496c-11.324-4.325-26.039-12.722-41.073-29.51   c-2.947-3.294-8.005-3.573-11.297-0.627c-3.292,2.945-3.573,8.003-0.627,11.297c16.734,18.719,33.791,28.656,47.302,33.791   c13.518,5.147,23.451,5.545,26.231,5.545C932.343,225.088,932.577,225.081,932.662,225.079z"/><path d="M997.317,192.796c10.238-2.383,17.199-11.409,17.393-21.459l-11.658-15.598c-1.215-1.628-1.891-3.539-1.978-5.524   c-4.254-1.826-9.105-2.364-13.96-1.233c-8.91,2.074-15.333,9.179-16.979,17.611l19.947,26.688   C992.444,193.505,994.88,193.363,997.317,192.796z"/><path d="M979.036,327.249c-0.004,15.705,2.36,33.698,9.321,52.481c1.866,5.043,6.642,8.162,11.722,8.162   c1.442,0,2.91-0.252,4.342-0.782c6.473-2.397,9.776-9.59,7.38-16.064c-5.789-15.628-7.763-30.58-7.765-43.798   c-0.004-14.127,2.278-26.242,4.542-34.712c0.391-1.463,0.779-2.809,1.155-4.045c6.314-1.599,12.033-5.879,14.146-16.753   c2.586-22.215,1.123-35.346-5.682-55.52c-4.673-13.59-15.667-18.557-24.049-17.499l9.251,12.377   c1.599,2.139,2.269,4.773,1.887,7.416c-0.383,2.645-1.771,4.98-3.911,6.581c-1.736,1.301-3.801,1.988-5.967,1.988h-0.011   c-3.142,0-6.14-1.5-8.018-4.01l-5.493-7.349c-0.048,2.45,0.255,4.95,0.943,7.337c2.739,13.989,7.595,34.053,5.298,51.238   C984.952,282.92,979.066,302.192,979.036,327.249z"/><path d="M995.397,225.083c1.666,0.001,3.346-0.518,4.782-1.592c3.538-2.645,4.264-7.659,1.617-11.197l-50.326-67.332   c-2.646-3.54-7.657-4.264-11.197-1.619c-3.538,2.645-4.264,7.657-1.617,11.197l50.326,67.333   C990.553,223.973,992.96,225.083,995.397,225.083z"/><path d="M1063.317,192.796c12.1-2.816,19.625-14.91,16.809-27.01c-2.818-12.098-14.912-19.623-27.012-16.805   c-8.909,2.074-15.332,9.179-16.979,17.611l19.948,26.688C1058.444,193.505,1060.88,193.363,1063.317,192.796z"/><path d="M1071.286,218.511c-0.381,2.646-1.771,4.982-3.91,6.581c-1.741,1.301-3.81,1.992-5.981,1.992   c-3.142,0-6.139-1.503-8.016-4.017l-5.491-7.346c-0.048,2.451,0.255,4.951,0.943,7.339c2.739,13.989,7.595,34.054,5.298,51.24   c-3.178,8.62-9.063,27.891-9.094,52.947c-0.002,15.704,2.361,33.698,9.321,52.481c1.867,5.042,6.644,8.161,11.723,8.161   c1.443,0.001,2.909-0.251,4.342-0.781c6.472-2.398,9.777-9.59,7.38-16.061c-5.79-15.629-7.764-30.582-7.766-43.8   c-0.005-14.128,2.281-26.243,4.542-34.71c0.391-1.464,0.78-2.81,1.156-4.047c6.313-1.6,12.033-5.879,14.146-16.753   c2.586-22.215,1.123-35.346-5.682-55.52c-4.673-13.59-15.666-18.557-24.048-17.499l9.248,12.373   C1070.998,213.233,1071.667,215.868,1071.286,218.511z"/><path d="M1054.98,221.871c1.571,2.102,3.979,3.212,6.415,3.212c1.666,0,3.347-0.519,4.782-1.594   c3.54-2.644,4.265-7.657,1.618-11.197l-50.324-67.33c-2.644-3.54-7.658-4.264-11.198-1.618c-3.539,2.644-4.264,7.658-1.618,11.197   L1054.98,221.871z"/></g></svg>