<svg xmlns="http://www.w3.org/2000/svg" xmlns:xlink="http://www.w3.org/1999/xlink" version="1.1" x="0px" y="0px" viewBox="0 0 144.115 151.01125" style="enable-background:new 0 0 144.115 120.809;" xml:space="preserve"><g><path d="M31.841,50.709c-3.296,0.982-12.448,2.564-12.621,6.672c-0.009,0.214-0.015,0.414-0.02,0.61l2.703,1.39l2.07-2.229   c0.182-0.197,0.433-0.31,0.699-0.318c0.268-0.008,0.524,0.088,0.719,0.271l2.459,2.32l1.177-1.776   c0.175-0.265,0.468-0.431,0.784-0.446c0.318-0.016,0.625,0.122,0.826,0.37l2.191,2.701c0.348,0.429,0.281,1.058-0.148,1.407   c-0.429,0.347-1.059,0.281-1.406-0.148l-1.331-1.643l-1.08,1.631c-0.165,0.249-0.425,0.409-0.722,0.441   c-0.039,0.005-0.078,0.007-0.117,0.007c-0.253,0-0.496-0.096-0.682-0.272l-2.59-2.446l-1.898,2.047   c-0.307,0.329-0.791,0.415-1.191,0.208l-2.418-1.244c0.17,1.893,0.747,2.811,1.969,4.423c2.462,3.24,9.083,1.109,13.496,2.127   c2.238,0.513,7.374,6.26,9.525,9.066c6.056-1.955,9.79-5.182,13.165-7.059c1.238-0.691,3.939-3.966,4.809-4.525   c-0.082-5.526-4.412-17.06-12.971-20.536c0.558-4.153-0.031-7.593-4.607-10.135c-3.85-2.135-8.43-1.086-6.623,0.662   c5.166,5.008,2.043,9.626,1.836,9.791C39.589,44.273,36.517,49.313,31.841,50.709z M41.689,52.016   c1.018,1.48,0.641,3.502-0.838,4.518c-1.48,1.017-3.502,0.638-4.52-0.842C35.316,54.214,40.672,50.536,41.689,52.016z"/><path d="M12.047,109.022c0.832,1.82,2.645,2.92,4.553,2.92c0.539,0,1.084-0.087,1.617-0.271l39.62-13.601   c3.007,2.196,6.846,4.438,9.714,5.142c11.414,2.797,32.924-9.62,33.649-9.622c4.783,4.04,32.045,26.402,41.176,27.203   c9.131,0.799-20.646-30.891-20.715-31.608c-0.508-4.917-1.625-8.673-3.215-11.586c-0.07-0.208-0.14-0.423-0.207-0.607   c7.416-2.497,15.492-7.164,22.45-15.726c1.483-1.829,1.2-4.508-0.632-5.983c-1.824-1.478-4.504-1.2-5.982,0.629   c-7.321,9.1-16.268,12.881-23.621,14.359c-17.141-11.188-23.724,6.065-44.587-3.695c-2.792,3.007-7.659,8.031-15.638,12.947   c0.052,0.602,0.111,1.266,0.18,1.955l-36.33,21.142C11.861,103.912,10.981,106.689,12.047,109.022z"/><path d="M12.273,8.308C8.574,6.161,3.79,5.812,1.452,10.325c-1.989,3.838-0.714,7.588,2.655,9.134   c-3.49,1.179-5.279,4.433-3.259,8.466c2.421,4.836,8.398,5.356,12.888,3.504c0.127-0.053,0.21-0.108,0.269-0.168   c1.962,4.189,5.535,7.676,9.475,9.889c0.242,0.135,1.85-1.004,1.756-1.236c-1.497-3.728-4.289-9.965-2.562-13.906   c-0.079,0.184-1.501,0.596-1.736,1.133c-1.314,2.994-0.102,7.204,1.231,10.719c-3.555-2.777-6.454-6.611-7.53-10.984   c0.01,0.037-1.862,0.81-1.755,1.236c0.211,0.858,0.498,1.691,0.838,2.504c-0.398-0.234-1.021-0.376-1.358-0.234   c-3.933,1.621-8.825,0.801-10.025-3.882c-0.907-3.538,1.087-6.162,4.772-6.31c1.19-0.047,0.936-1.076-0.104-1.17   c-3.99-0.367-5.505-4.306-3.74-7.717c2.369-4.57,6.549-3.75,9.861-0.563c0.308,0.297,2.185,0.529,1.863-0.273   c-0.996-2.479-1.512-5.797,0.9-7.685c1.93-1.507,4.533-1.907,6.912-1.462c6.839,1.272,8.11,7.361,4.75,12.811   c-0.375,0.608,0.814,0.917,1.191,0.915c11.855-0.047,5.492,19.125-4.357,13.132c-0.73-0.444-2.433,0.087-1.23,0.819   c5.244,3.19,11.79,1.42,13.776-4.693c1.857-5.725-1.655-9.676-6.919-10.344c1.637-2.964,2.588-6.639,0.406-9.602   c-1.811-2.455-4.845-3.883-7.83-4.25C16.542-0.632,11.222,2.454,12.273,8.308z"/><path d="M23.521,21.747c-3.057-4.43-8.809-2.991-11.983,0.477c-0.998,1.088,0.294,0.76,0.874,0.128   c2.701-2.95,7.322-2.337,9.495,0.815C22.164,23.534,23.837,22.208,23.521,21.747z"/></g></svg>