<svg xmlns="http://www.w3.org/2000/svg" xmlns:xlink="http://www.w3.org/1999/xlink" version="1.1" x="0px" y="0px" viewBox="0 0 321.049 313.9075" style="enable-background:new 0 0 321.049 251.126;" xml:space="preserve"><g><path d="M237.809,0h-15.739v184.883h-15.41v-12.056c0-4.439-3.599-8.038-8.038-8.038l-1.262-0.248   c-0.396-2.11-0.783-4.163-1.1-5.85L169.754,17.737c-0.816-4.345-1.902-10.111-2.41-12.814s-3.176-4.915-5.925-4.915   c-2.749,0-8.618,0-13.039,0H72.016c-4.422,0-10.753,0-14.069,0c-3.315,0-6.028,2.712-6.028,6.028c0,3.317,0,9.646,0,14.067v115.808   l-43.879-8.638c-4.439,0-8.039,3.6-8.039,8.039v76.366c0,4.439,3.6,8.038,8.039,8.038h6.421   c-0.275-6.386,1.051-12.774,3.959-18.665c4.556-9.232,12.434-16.136,22.185-19.441c4.012-1.361,8.176-2.051,12.377-2.051   c0.42,0,0.838,0.012,1.255,0.025c2.991,0.097,5.914,0.539,8.724,1.292c12.229,3.276,22.315,12.451,26.525,24.859   c1.55,4.571,2.209,9.298,2.015,13.98h22.023c-0.275-6.386,1.05-12.774,3.958-18.665c4.555-9.232,12.434-16.136,22.185-19.441   c0.809-0.274,1.624-0.514,2.444-0.733c3.249-0.87,6.579-1.317,9.933-1.317c3.429,0,6.776,0.459,9.979,1.317   c12.229,3.276,22.316,12.451,26.524,24.859c1.551,4.571,2.21,9.298,2.016,13.98h8.06c4.439,0,8.038-3.599,8.038-8.038v-9.38h15.41   v22.775c0,0,98.979,0,98.979-15.406c-33.335,0-83.24,0-83.24,0V0z M63.977,20.106c0-4.422,3.617-8.039,8.039-8.039h76.366   c4.422,0,8.708,3.555,9.524,7.899l19.736,104.961h-5.482l-10.969-7.695c-1.003,1.274-2.316,2.312-3.871,2.984l6.714,4.711H150.87   l2.51-3.577c-3.72,0.869-7.384,1.434-10.953,1.683l-1.33,1.895h-20.516c-0.243-1.642-0.46-3.28-0.651-4.913   c-7.563-2.757-13.028-6.737-16.248-9.579c-6.361-5.58-9.654-11.045-10.774-13.135c-2.566-4.995-0.627-11.036,4.277-13.554   c1.409-0.724,2.987-1.108,4.563-1.108c3.767,0,7.177,2.082,8.9,5.433c0.01,0.013,0.075,0.126,0.17,0.284   c0.169,0.281,0.532,0.862,1.089,1.629c0.963,1.337,2.599,3.353,4.939,5.395c0.411,0.354,0.827,0.693,1.246,1.022   c-0.01-0.149-0.02-0.308-0.03-0.456c0.194-10.356-6.517-20.89-15.313-20.734c-8.797,0.156-19.549,7.839-20.619,23.285   c-0.64,10.089-0.515,18.33,0.663,26.432H63.977V20.106z"/><path d="M246.35,192.25c0,4.439,3.6,8.039,8.039,8.039h56.27c4.439,0,8.039-3.6,8.039-8.039v-56.27c0-4.439-3.6-8.038-8.039-8.038   h-56.27c-4.439,0-8.039,3.599-8.039,8.038V192.25z"/><path d="M254.389,119.234h56.27c4.439,0,8.039-3.6,8.039-8.039V54.925c0-4.438-3.6-8.037-8.039-8.037h-56.27   c-4.439,0-8.039,3.599-8.039,8.037v56.271C246.35,115.635,249.949,119.234,254.389,119.234z"/><path d="M84.236,207.517c-5.854-17.263-24.591-26.513-41.853-20.659c-14.284,4.843-23.071,18.51-22.365,32.86   c0.147,2.992,0.697,6.014,1.707,8.991c5.85,17.264,24.589,26.514,41.853,20.66c13.214-4.479,21.724-16.512,22.367-29.651   C86.142,215.692,85.609,211.564,84.236,207.517z M57.166,230.461c-6.819,2.311-14.223-1.343-16.533-8.161   c-0.29-0.855-0.486-1.72-0.594-2.582c-0.752-6.015,2.791-11.933,8.755-13.953c6.819-2.313,14.224,1.344,16.534,8.162   c0.654,1.928,0.815,3.898,0.579,5.791C65.307,224.521,62.058,228.802,57.166,230.461z"/><path d="M183.297,207.517c-5.852-17.263-24.59-26.513-41.852-20.659c-14.285,4.843-23.073,18.51-22.367,32.86   c0.147,2.992,0.697,6.014,1.707,8.991c5.852,17.264,24.59,26.514,41.854,20.66c13.213-4.479,21.723-16.512,22.366-29.651   C185.202,215.692,184.669,211.564,183.297,207.517z M156.228,230.461c-6.819,2.311-14.222-1.343-16.534-8.161   c-0.29-0.855-0.485-1.72-0.593-2.582c-0.751-6.015,2.792-11.933,8.755-13.953c6.819-2.313,14.224,1.344,16.534,8.162   c0.654,1.928,0.815,3.898,0.579,5.791C164.368,224.521,161.12,228.802,156.228,230.461z"/><ellipse transform="matrix(0.9994 -0.0332 0.0332 0.9994 -1.5674 3.7292)" cx="111.474" cy="49.046" rx="22.496" ry="22.494"/><path d="M162.828,107.885l3.202-4.563c1.269-1.809,0.831-4.304-0.977-5.572c-1.809-1.269-4.304-0.831-5.572,0.978l-2.198,3.132   C159.857,102.966,161.909,105.133,162.828,107.885z"/><path d="M161.283,110.086c-0.046-0.373-0.108-0.746-0.209-1.12c-0.704-2.605-2.619-4.556-4.974-5.421   c-1.499-0.551-3.174-0.665-4.833-0.217c-4.915,1.324-9.238,1.854-13.05,1.855c-8.91-0.03-15.274-2.828-19.953-6.156   c-0.98-0.698-1.892-1.417-2.731-2.141c-2.39-2.086-4.139-4.196-5.244-5.728c-0.555-0.764-0.947-1.38-1.182-1.771   c-0.117-0.194-0.196-0.333-0.235-0.403h-0.002c-2.02-3.93-6.842-5.479-10.771-3.46c-3.929,2.02-5.478,6.844-3.46,10.773   c0.313,0.58,3.4,6.527,10.366,12.638c3.688,3.254,8.604,6.524,14.677,8.87c5.271,2.036,11.41,3.378,18.411,3.378   c0.043,0,0.083,0,0.125-0.001c1.848,0,3.753-0.097,5.706-0.285c3.565-0.343,7.303-1.01,11.209-2.047   c0.06-0.016,0.118-0.029,0.178-0.045c0.042-0.011,0.081-0.021,0.123-0.031c1.689-0.457,3.1-1.426,4.123-2.69   C160.89,114.438,161.552,112.287,161.283,110.086z"/></g></svg>