<svg xmlns="http://www.w3.org/2000/svg" xmlns:xlink="http://www.w3.org/1999/xlink" version="1.1" x="0px" y="0px" viewBox="0 0 166.022 255.91375" style="enable-background:new 0 0 166.022 204.731;" xml:space="preserve"><g><ellipse transform="matrix(0.5786 -0.8156 0.8156 0.5786 14.4218 72.9049)" cx="77.762" cy="22.496" rx="22.494" ry="22.495"/><path d="M6.018,114.635c0.038,0.1,0.065,0.201,0.106,0.301v-0.001c0.032,0.083,0.095,0.252,0.192,0.525   c1.03,2.882,5.298,16.122,5.294,36.651c0,10.592-1.132,23.136-4.429,37.277c-1.569,6.723,2.61,13.443,9.333,15.013   c0.955,0.223,1.91,0.329,2.85,0.33c5.679,0,10.818-3.895,12.163-9.663c3.757-16.102,5.083-30.583,5.083-42.956   c-0.005-17.623-2.675-30.944-4.802-38.767c0.311-0.788,0.623-1.632,0.936-2.549c2.776-10.653,8.663-21.283,14.597-30.679   c-0.49-0.634-0.979-1.27-1.448-1.93C38.97,68.4,36.48,58.981,35.73,55.386l-0.026-0.133c-0.5-2.716,0.069-5.374,1.584-7.572   c1.517-2.199,3.798-3.677,6.425-4.161c0.601-0.109,1.21-0.164,1.815-0.164c4.801,0,8.933,3.426,9.823,8.148   c0.026,0.14,0.059,0.279,0.105,0.478c0.101,0.418,0.277,1.104,0.54,1.966c0.496,1.62,1.383,4.146,2.799,6.978   c0.161,0.322,0.333,0.652,0.512,0.989c4.291-7.865,4.261-17.826-1.895-22.337c-7.095-5.201-20.306-5.595-30.507,6.053   C12.97,61.726,6.646,73.327,0.63,94.868C-1.337,104.76,1.534,110.725,6.018,114.635z"/><path d="M69.651,100.216l7.242,7.688l7.418-6.984c-4.329-0.531-8.456-1.489-12.36-2.87L69.651,100.216z"/><path d="M92.834,81.419c0.524,0,1.062-0.01,1.618-0.026l0.307-0.006c2.804,0,5.323,1.138,7.133,2.979l0.448-0.421l2.411,2.56   l4.039-3.804c8.178,3.651,18.104,2.288,25.029-4.233c9.198-8.678,9.627-23.159,0.968-32.361   c-8.671-9.193-23.157-9.628-32.361-0.959c-6.929,6.528-8.878,16.353-5.717,24.743l-4.032,3.798l2.414,2.564l-5.385,5.072   c0.975,0.057,1.967,0.092,2.984,0.094H92.834z M107.258,50.274c6.383-5.993,16.392-5.697,22.398,0.661   c5.991,6.376,5.692,16.389-0.673,22.399c-6.376,5.989-16.383,5.692-22.392-0.666C100.607,66.286,100.902,56.282,107.258,50.274z"/><path d="M54.083,54.532c-0.279-0.914-0.464-1.631-0.574-2.089c-0.055-0.23-0.091-0.394-0.109-0.485   c-0.004-0.02-0.008-0.036-0.011-0.048l0.001,0c-0.002-0.01-0.004-0.019-0.005-0.029c0-0.001,0-0.001,0-0.002s0-0.002,0-0.003h0   c-0.814-4.325-4.976-7.183-9.308-6.387c-4.346,0.798-7.221,4.968-6.421,9.314h-0.002c0.152,0.661,2.047,11.161,9.87,22.224   c0.306,0.43,0.639,0.861,0.964,1.293c3.84,5.093,9.025,10.2,15.944,14.116c2.787,1.583,5.847,2.958,9.174,4.058   c3.854,1.275,8.066,2.181,12.624,2.622c2.05,0.198,4.169,0.305,6.359,0.305c0.034,0,0.065,0,0.099,0   c0.772,0,1.542-0.012,2.31-0.037c4.417-0.131,7.888-3.819,7.757-8.235c-0.063-2.115-0.947-4.007-2.331-5.397   c-1.505-1.512-3.603-2.428-5.905-2.36c-0.632,0.021-1.243,0.03-1.83,0.028c-1.74-0.003-3.366-0.104-4.932-0.255   c-6.339-0.611-11.338-2.344-15.442-4.652c-6.736-3.801-11.251-9.4-14.202-14.622c-0.395-0.698-0.763-1.39-1.104-2.07   C55.574,58.959,54.641,56.357,54.083,54.532z"/><path d="M161.632,113.857H80.412c-2.424,0-4.39,1.966-4.39,4.39v81.22c0,2.424,1.966,4.39,4.39,4.39h81.221   c2.424,0,4.39-1.966,4.39-4.39v-81.22C166.022,115.823,164.056,113.857,161.632,113.857z M121.12,134.162h-13.171v-13.17h13.171   V134.162z M139.96,134.162h-13.17v-13.17h13.17V134.162z M158.802,134.162h-13.171v-13.17h13.171V134.162z"/></g></svg>