<svg xmlns="http://www.w3.org/2000/svg" xmlns:xlink="http://www.w3.org/1999/xlink" version="1.1" x="0px" y="0px" viewBox="0 0 264.634 326.94375" style="enable-background:new 0 0 264.634 261.555;" xml:space="preserve"><g><path d="M59.653,213.865H48.711l5.969-5.969l4.974,4.974v-3.221l-3.364-3.364l3.364-3.363v-3.22l-4.974,4.974l-17.396-17.397   l17.396-17.394l4.974,4.973v-3.221l-3.364-3.364l3.364-3.364v-3.221l-4.974,4.974l-17.396-17.395l16.076-16.076   c-0.662-0.418-1.307-0.849-1.932-1.294l-15.757,15.757l-12.646-12.647v-9.499l12.645-12.644l3.964,3.964   c-0.503-1.424-0.888-2.886-1.15-4.376l-1.199-1.2l0.91-0.91c-0.09-0.918-0.137-1.844-0.136-2.778   c0.001-0.106,0.008-0.212,0.01-0.318l-2.396,2.397L23.025,96.996v-9.498l12.646-12.646l10.7,10.7   c0.472-0.603,0.953-1.196,1.447-1.776L37.284,73.238L54.68,55.846l13.915,13.914c0.639-0.152,1.292-0.29,1.977-0.39   c0.246-0.052,0.492-0.079,0.738-0.118l-15.02-15.019l17.398-17.396l5.896,5.895c0.447-0.621,0.92-1.223,1.415-1.804l-5.701-5.702   L92.691,17.83l13.229,13.229c1.345,0.152,2.663,0.393,3.945,0.727L94.302,16.221l7.579-7.578h19.635l7.576,7.578l-16.444,16.446   c0.77,0.288,1.523,0.607,2.261,0.958l15.797-15.795l17.395,17.397l-17.395,17.396l-0.421-0.421c0.334,1.284,0.575,2.604,0.728,3.95   l17.089,17.086l-15.361,15.364c0.076,0.858,0.127,1.687,0.176,2.487l0.012,0.2l0.005,0.054l0.003,0.055   c0.003,0.074,0.004,0.149,0.007,0.224l16.771-16.77l12.646,12.646v9.496l-12.646,12.649l-16.73-16.73   c0.034,1.104,0.061,2.207,0.079,3.3l15.04,15.041l-0.485,0.485h-17.071c0.503,1.659,1.146,3.006,1.911,3.967   c0.252,0.163,1.047,0.617,2.399,0.917c1.702,0.421,4.089,0.665,6.436,0.665h0.107c1.676,0,2.949-0.107,3.301-0.141   c0.341-0.035,0.707-0.058,1.073-0.058c3.53,0,6.661,1.836,8.44,4.649H157v-2.993c0.721,0.97,1.321,2.036,1.775,3.183l3.584,3.584   v9.495l-12.646,12.65l-6.4-6.401c-0.589,0.018-1.219,0.03-1.901,0.03c-0.405-0.001-0.846-0.007-1.306-0.016l7.995,7.996   l-17.395,17.395l-4.962-4.962v3.225l3.349,3.349l-3.349,3.349v3.224l4.962-4.961l17.395,17.392l-17.395,17.397l-4.962-4.961v3.225   l3.349,3.349l-3.349,3.35v3.223l4.962-4.962l5.966,5.969h-10.928v35.326c0,1.214-0.125,2.398-0.351,3.547H234v-8h-63V0H14.384   v244.738H0v8h60.005c-0.227-1.148-0.352-2.333-0.352-3.547V213.865z M149.711,71.631l-17.395-17.398l17.396-17.395l12.646,12.651   v9.492L149.711,71.631z M151.322,35.229l11.037-11.039v22.078L151.322,35.229z M151.322,73.238l11.037-11.035v22.074   L151.322,73.238z M157,116.932v-5.193h-5.193l-0.484-0.484l11.037-11.036v22.073L157,116.932z M162.359,138.229v22.074   l-11.037-11.037L162.359,138.229z M132.316,168.272l17.395-17.394l12.648,12.648v9.491l-12.646,12.649L132.316,168.272z    M162.359,176.238v22.078l-11.037-11.039L162.359,176.238z M132.314,206.286l17.396-17.396l12.648,12.648v9.494l-2.828,2.832   h-19.639L132.314,206.286z M159.53,8.643l2.829,2.832v9.494l-12.648,12.648l-17.396-17.396l7.578-7.578H159.53z M136.671,8.643   l-5.966,5.967l-5.969-5.967H136.671z M54.68,52.622L37.284,35.227L54.68,17.83l17.395,17.394L54.68,52.622z M98.66,8.643   l-5.969,5.967l-5.969-5.967H98.66z M83.503,8.643l7.579,7.578L73.688,33.617L56.289,16.221l7.58-7.578H83.503z M60.648,8.643   l-5.969,5.967l-5.969-5.967H60.648z M23.025,11.473l2.83-2.83H45.49l7.578,7.578L35.674,33.617L23.025,20.969V11.473z    M23.025,24.189l11.035,11.039L23.025,46.265V24.189z M23.025,49.484l12.646-12.646l17.396,17.395L35.674,71.628L23.025,58.983   V49.484z M23.025,62.205l11.035,11.033L23.025,84.277V62.205z M23.025,100.218l11.035,11.036L23.025,122.29V100.218z    M23.025,138.23l11.035,11.035l-11.035,11.037V138.23z M23.025,163.525l12.649-12.646l17.393,17.394l-17.393,17.396L23.025,173.02   V163.525z M23.025,176.242l11.035,11.035l-11.035,11.038V176.242z M23.025,201.539l12.649-12.648l17.394,17.395l-7.578,7.58H25.855   l-2.83-2.832V201.539z"/><path d="M80.199,59.371c0,5.157,1.739,9.905,4.656,13.699h27.158c0.457,0,0.915,0.033,1.391,0.106   c0.391-0.047,0.755-0.068,1.106-0.068l0.177-0.002c1.684,0,3.414,0.365,4.998,1.01c3.431-3.95,5.513-9.102,5.513-14.745   c0-12.426-10.074-22.5-22.5-22.5C90.273,36.871,80.199,46.945,80.199,59.371z"/><path d="M126.94,91.654c-0.184-2.973-0.328-5.801-1.654-9.139c-0.688-1.644-1.824-3.56-3.822-5.101   c-1.975-1.563-4.686-2.35-6.953-2.309c-0.389,0-0.768,0.037-1.141,0.09c-0.439-0.078-0.891-0.125-1.355-0.125H73.381   c-0.605,0-1.191,0.076-1.758,0.208c-3.078,0.423-5.555,1.595-8.113,3.003c-4.551,2.641-9.029,6.504-12.738,11.373   c-3.641,4.856-6.66,10.83-6.713,17.914c-0.004,2.49,0.431,5.094,1.369,7.609c0.036,0.108,0.065,0.217,0.107,0.324v-0.003   c0.001,0.001,0.001,0.002,0.001,0.003c0,0,0.001,0.001,0.001,0.002c0.001,0.002,0.002,0.004,0.003,0.006   c2.004,5.189,6.098,9.658,11.682,13.023c2.48,1.502,5.29,2.825,8.431,4.002v116.656c0,6.83,5.537,12.363,12.363,12.363   c6.828,0,12.364-5.533,12.364-12.363V158.92h4.635v90.271c0,6.83,5.537,12.363,12.363,12.363c6.828,0,12.365-5.533,12.365-12.363   V128.43c3.381,3.371,7.393,4.811,10.932,5.7c4.029,0.964,7.816,1.147,10.731,1.157c2.975-0.002,5.019-0.223,5.23-0.247   c4.394-0.481,7.563-4.433,7.08-8.824c-0.484-4.392-4.438-7.562-8.83-7.077c-0.18,0.017-1.586,0.148-3.48,0.148   c-2.104,0.006-4.84-0.184-6.981-0.711c-2.199-0.487-3.445-1.4-3.449-1.521c-1.41-1.719-2.48-4.402-3.084-7.89   C126.946,103.941,127.188,97.496,126.94,91.654z M65.652,114.933c-0.042-0.025-0.087-0.05-0.128-0.075   c-3.376-2.076-4.55-3.836-5.077-5.154c-0.001-0.002-0.001-0.003-0.003-0.005c-0.265-0.694-0.384-1.349-0.388-2.13   c-0.009-1.383,0.459-3.217,1.525-5.227c0.963-1.859,2.43-3.796,4.07-5.514V114.933z"/><path d="M184.634,60.614c0,12.692,5.91,24.003,15.13,31.331c2.638,2.096,0.702,9.669-9.63,20.669   c2.163,0.96,22.721-13.686,25.065-13.118c3.025,0.731,6.185,1.118,9.435,1.118c22.091,0,40-17.909,40-40c0-22.091-17.909-40-40-40   C202.541,20.614,184.634,38.523,184.634,60.614z M259.634,60.614c0,19.299-15.702,35.001-35,35.001c-19.301,0-35-15.702-35-35.001   c0-19.3,15.699-34.999,35-34.999C243.932,25.615,259.634,41.314,259.634,60.614z"/><path d="M211.945,49.26l0.001,4.269h-0.521c-1.823,0-3.304,1.479-3.304,3.303v19.813c0,1.824,1.48,3.303,3.304,3.303h26.418   c1.823,0,3.302-1.478,3.302-3.303V56.832c0-1.824-1.479-3.303-3.302-3.303h-0.522V49.26c0-7.008-5.679-12.688-12.686-12.69   C217.627,36.572,211.947,42.252,211.945,49.26z M223.499,73.905v-6.394c-1.783-0.568-3.083-2.217-3.083-4.189   c0-2.439,1.977-4.416,4.416-4.416c2.439,0,4.416,1.977,4.416,4.416c0,1.972-1.3,3.621-3.083,4.189v6.394H223.499z M224.635,39.571   c5.349,0.01,9.677,4.338,9.686,9.689v4.269h-19.375V49.26C214.956,43.909,219.285,39.581,224.635,39.571z"/></g></svg>