<svg xmlns="http://www.w3.org/2000/svg" xmlns:xlink="http://www.w3.org/1999/xlink" version="1.1" x="0px" y="0px" viewBox="0 0 198.528 281.73875" style="enable-background:new 0 0 198.528 225.391;" xml:space="preserve"><g><ellipse transform="matrix(0.9739 -0.2268 0.2268 0.9739 -1.1074 35.3612)" cx="153.332" cy="22.5" rx="22.495" ry="22.494"/><path d="M165.702,46.013c-8.537,2.127-12.291,14.039-9.42,23.992c0.311,1.589,0.651,3.265,1.003,4.996   c4.129-7.229,5.281-14.236,5.291-14.311c0.706-4.948,4.956-8.64,9.895-8.64c0.471,0,0.945,0.034,1.414,0.101   c5.459,0.774,9.271,5.846,8.497,11.305c-0.276,1.784-1.391,7.911-4.686,15.408c-3.943,8.932-9.354,16.215-16.124,21.75   c0.709,6.972,0.892,14.026,0.002,20.654c-0.001,0.016-0.001,0.03-0.002,0.047c-3.236,9.044-7.015,23.643-7.027,42.582   c-0.004,15.273,2.493,33.323,9.675,53.229c1.837,5.094,6.641,8.264,11.761,8.264c1.408,0,2.839-0.239,4.24-0.744   c6.494-2.342,9.86-9.506,7.519-15.999c-6.172-17.125-8.19-32.176-8.195-44.75c0-11.876,1.822-21.54,3.773-28.497   c6.26-1.626,11.913-5.922,14.011-16.718c2.586-22.215,1.125-35.346-5.682-55.52C186.614,48.521,174.237,43.884,165.702,46.013z"/><path d="M117.295,109.288c-0.289-0.306-0.548-0.63-0.793-0.964c-1.274-1.732-1.951-3.812-1.933-5.99h-7.811v8.703l-2.534,11.764   h-6.593V93.63H66.133V78.631H25.635v30.998H7.969V122.8H0l12.314,42.42l79.503,15.176l-1.306,6.063H14.069v8.967h85.279   l18.121-84.125h2.514c-0.787-0.406-1.52-0.918-2.185-1.53C117.628,109.613,117.456,109.458,117.295,109.288z"/><circle cx="84.487" cy="211.543" r="13.012"/><circle cx="30.686" cy="211.543" r="13.012"/><path d="M180.401,63.177c0.62-4.374-2.423-8.424-6.796-9.044c-4.372-0.621-8.419,2.418-9.043,6.788h-0.001l-0.002,0.008h0.001   c-0.067,0.594-1.613,9.051-6.69,16.961c-0.181,0.281-0.355,0.564-0.545,0.844c-2.768,4.113-6.418,7.988-11.297,10.858   c-4.892,2.859-11.06,4.838-19.512,4.855c-0.545,0-1.124-0.011-1.729-0.025c-4.417-0.127-8.098,3.354-8.222,7.771   c-0.001,0.048,0.004,0.094,0.003,0.141c-0.048,4.353,3.4,7.957,7.77,8.082c0.712,0.019,1.438,0.032,2.178,0.032   c0.037,0,0.074,0,0.111,0c3.032,0,5.927-0.216,8.687-0.61c7.568-1.082,14.107-3.545,19.528-6.876   c2.373-1.455,4.513-3.059,6.466-4.749c7.25-6.274,11.763-13.824,14.557-20.152C179.415,69.982,180.324,63.661,180.401,63.177z"/></g></svg>