<svg xmlns="http://www.w3.org/2000/svg" xmlns:xlink="http://www.w3.org/1999/xlink" version="1.1" x="0px" y="0px" viewBox="0 0 426.025 321.38874999999996" style="enable-background:new 0 0 426.025 257.111;" xml:space="preserve"><g><path d="M19.588,123.081c-0.396-2.913,0.37-5.803,2.151-8.139c2.099-2.756,5.29-4.336,8.758-4.336c2.389,0,4.665,0.757,6.583,2.193   c0.06,0.045,0.164,0.116,0.322,0.219c0.287,0.193,0.892,0.583,1.834,1.117c1.607,0.913,4.273,2.275,7.951,3.688   c-1.216-7.755-6.297-14.593-13.611-15.384c-9.553-1.031-22.31,5.132-25.699,20.291c-4.527,20.874-4.258,34.086,1.682,55.797   c5.069,13.934,15.362,15.598,24.574,14.882c0.206,0.009,0.408,0.031,0.617,0.031h39.354l23.824,55.492   c2.195,5.115,7.178,8.177,12.413,8.178c1.776,0,3.581-0.353,5.317-1.098c6.851-2.942,10.02-10.879,7.079-17.73v-0.003   l-27.333-63.665c-2.138-4.98-6.988-8.176-12.404-8.176H46.58c-1.149-8.547-1.004-17.501-0.527-25.773   c-14.734-4.512-22.14-10.237-22.26-10.333C21.485,128.577,19.982,125.994,19.588,123.081z"/><path d="M37.539,97.61c11.09,5.598,24.621,1.144,30.217-9.947c1.568-3.107,2.347-6.405,2.412-9.667l9.807,2.385l-7.461-11.743   L29.812,58.253L27.586,67.4C21.997,78.491,26.45,92.015,37.539,97.61z"/><polygon points="72.732,66.634 83.111,56.208 32.025,49.147 30.284,56.31  "/><path d="M104.494,124.686c-7.297,0.957-13.979,1.361-20.063,1.361c-17.036-0.004-29.405-3.141-37.42-6.146   c-4.006-1.503-6.919-2.979-8.76-4.023c-0.918-0.521-1.572-0.936-1.955-1.191c-0.193-0.128-0.318-0.215-0.377-0.258   c-0.007-0.004-0.012-0.008-0.016-0.011c-0.014-0.01-0.021-0.016-0.024-0.018v0.001c-3.952-2.957-9.557-2.18-12.552,1.754   c-3.013,3.953-2.248,9.599,1.706,12.612c1.13,0.896,20.793,15.278,59.307,15.279c0.03,0,0.059,0,0.09,0   c6.878,0,14.349-0.456,22.408-1.516c4.926-0.647,8.397-5.168,7.748-10.095C113.941,127.508,109.42,124.038,104.494,124.686z"/><path d="M327.938,141.492H202.506V29.941h125.432v38.388c3.598-1.164,6.945-2.077,10-2.798V0h-145.43v216.743   c-0.867-0.227-1.724-0.468-2.554-0.734c-4.194-1.336-7.818-3.186-10.288-5.565c-2.467-2.395-3.865-5.194-3.887-9.019   c0-2.434,0.609-5.313,2.058-8.696c2.229-5.206,3.237-9.583,3.239-13.332c0.07-6.88-3.686-11.486-8.449-13.789   c-4.752-2.367-10.456-2.94-15.386-2.951c-0.024,0-0.049,0.001-0.073,0.001v-4.716h22.5v-10h-47.399l17.38-60.702l-13.459-3.854   l-18.484,64.556H84.168v10h49.002v95.026h23.998v-86.311c0.025-0.001,0.049-0.001,0.073-0.001c4.594-0.01,9.808,0.61,13.593,2.526   c3.773,1.979,6.174,4.743,6.242,10.214c0.002,3.016-0.831,6.896-2.915,11.756c-1.612,3.76-2.381,7.169-2.381,10.271   c-0.021,4.889,1.987,8.937,5.116,11.906c3.982,3.731,9.585,6.07,15.611,7.544v31.112h145.43V88.247   c-3.057,0.885-6.405,2.001-10,3.421V141.492z M228.506,10.941h19.332v8.667h-19.332V10.941z M202.506,10.941h19.332v8.667h-19.332   V10.941z"/><path d="M296.715,109.382l-7.006,21.557h-48.977l-7.99-24.592l-5.707,1.855l9.339,28.74h57.692l9.342-28.74l-3.355-1.091   c-0.595,0.432-1.188,0.846-1.785,1.295C297.773,108.777,297.254,109.102,296.715,109.382z"/><rect x="245.666" y="110.275" width="22" height="14.667"/><path d="M285.666,108.821c-1.068-0.693-2.02-1.572-2.797-2.609c-3.018-4.023-2.848-9.454,0.058-13.27H275v32.666h10.666V108.821z"/><path d="M355.787,65.888c-6.385,0.229-36.014,2.655-68.92,27.318c-3.535,2.653-4.252,7.667-1.602,11.204   c1.572,2.094,3.977,3.199,6.408,3.199c1.67,0,3.353-0.521,4.793-1.602c21.834-16.39,41.875-21.648,52.51-23.34v157.281   c0,6.83,5.537,12.363,12.363,12.363c6.828,0,12.365-5.533,12.365-12.363v-90.271h4.635v90.271c0,6.83,5.537,12.363,12.363,12.363   c6.828,0,12.365-5.533,12.365-12.363V89.991c0.592,1.216,1.189,2.61,1.779,4.236c2.816,7.813,5.189,20.632,5.18,40.64   c0,5.515-0.178,11.572-0.563,18.224c-0.26,4.413,3.107,8.196,7.52,8.454c0.158,0.009,0.318,0.014,0.475,0.014   c4.207,0,7.73-3.283,7.978-7.534c0.402-6.935,0.588-13.301,0.588-19.157c-0.041-30.184-4.859-46.887-11.434-56.931   c-3.281-4.987-7.127-8.185-10.678-9.956c-3.373-1.703-6.346-2.101-8.154-2.131c-0.141-0.008-0.277-0.021-0.42-0.021h-38.635   C356.395,65.828,356.088,65.852,355.787,65.888z"/><circle cx="364.689" cy="39.629" r="22.5"/><rect y="200.941" width="68" height="12"/></g></svg>