<svg xmlns="http://www.w3.org/2000/svg" xmlns:xlink="http://www.w3.org/1999/xlink" version="1.1" x="0px" y="0px" viewBox="0 0 323.978 250.40625" style="enable-background:new 0 0 323.978 200.325;" xml:space="preserve"><g><path d="M270.457,3.535v93.5h46v-93.5H270.457z M293.457,74.034c-2.9,0-5.25-2.351-5.25-5.25c0-2.899,2.35-5.25,5.25-5.25   c2.899,0,5.25,2.35,5.25,5.25C298.707,71.684,296.356,74.034,293.457,74.034z M309.957,39.7h-33v-11h33V39.7z M309.957,23.034h-33   v-11h33V23.034z"/><path d="M224.29,12.034h33v11h-25.645V28.7h25.645v11h-25.645v39.001v2h-2H217.79v16.334h46v-93.5h-46v10.166h6.5V12.034z    M240.79,74.034c-2.9,0-5.25-2.351-5.25-5.25c0-2.899,2.35-5.25,5.25-5.25c2.899,0,5.25,2.35,5.25,5.25   C246.04,71.684,243.689,74.034,240.79,74.034z"/><path d="M139.795,56.368v31.999h-19.278c0.792,1.252,1.318,2.695,1.491,4.26c0.128,1.159,0.043,2.307-0.22,3.408h25.009v-4.667h-3   V80.701V78.7h19.348v2.001v8.667h-10.333v6.667h50.666v-6.667h-10.333v-8.667V78.7h36.5v-63h-103v36.668h-2.001H94.609   c0.277,1.391,0.416,2.712,0.512,4H139.795z M132.645,21.698h91v51.004h-79.848V52.368h-11.152V21.698z"/><path d="M113.156,103.659c-0.228,0.025-2.368,0.256-5.446,0.259c-2.681-0.013-6.746-0.15-11.197-1.213   c-1.426-0.359-3.018-0.828-4.66-1.505h-3.807v9h235.933v-9H118.689C117.153,102.566,115.241,103.43,113.156,103.659z"/><polygon points="29.956,109.992 29.956,101.2 0,101.2 0,110.2 29.957,110.2 29.957,109.992  "/><path d="M44.456,144.068c-2.344,0-4.552-0.571-6.513-1.563v53.82c0,2.209,1.791,4,4,4H95.64c2.209,0,4-1.791,4-4v-52.257H44.456z"/><path d="M85.001,22.5c0-12.426-10.074-22.5-22.5-22.5C50.077,0,40.003,10.074,40.003,22.5c0,6.9,3.108,13.071,7.998,17.198h29.002   C81.893,35.571,85.001,29.4,85.001,22.5z"/><path d="M29.955,80.193c-1.961-1.518-2.79-2.827-3.204-3.861c-0.001-0.002-0.001-0.003-0.003-0.005   c-0.209-0.546-0.305-1.085-0.347-1.664c-0.012-0.156-0.04-0.3-0.041-0.466c-0.01-1.383,0.459-3.217,1.525-5.227   c0.963-1.859,2.43-3.795,4.07-5.514v66.111h0.001c0,6.904,5.596,12.5,12.5,12.5h61.52v43.501c0,6.902,5.596,12.5,12.5,12.5   c6.904,0,12.5-5.598,12.5-12.5v-56.001c0-3.291-1.332-6.511-3.66-8.84c-2.328-2.325-5.549-3.66-8.84-3.66H86.046v-22.01   c3.381,3.371,7.393,4.81,10.932,5.701c4.029,0.963,7.816,1.146,10.73,1.156c2.975-0.002,5.02-0.223,5.23-0.246   c4.395-0.482,7.563-4.434,7.08-8.824c-0.484-4.393-4.438-7.563-8.83-7.078c-0.18,0.017-1.586,0.148-3.48,0.148   c-2.104,0.006-4.84-0.184-6.98-0.711c-2.199-0.486-3.445-1.4-3.449-1.521c-1.41-1.719-2.48-4.402-3.084-7.889   c-0.945-5.225-0.703-11.67-0.951-17.512c-0.184-2.973-0.328-5.801-1.654-9.139c-0.688-1.644-1.824-3.56-3.822-5.101   c-1.975-1.563-4.686-2.35-6.953-2.309c-0.389,0-0.768,0.037-1.141,0.09c-0.439-0.078-0.891-0.125-1.355-0.125H39.685   c-0.605,0-1.191,0.076-1.758,0.209c-3.078,0.422-5.555,1.594-8.113,3.002c-4.551,2.641-9.029,6.504-12.738,11.373   c-3.641,4.855-6.66,10.83-6.713,17.914c-0.001,0.395,0.03,0.796,0.052,1.195c0.111,2.121,0.527,4.294,1.315,6.409   c0.038,0.109,0.067,0.22,0.109,0.329v-0.002c2.002,5.193,6.098,9.666,11.686,13.033c1.943,1.177,4.09,2.242,6.432,3.218   L29.955,80.193z"/></g></svg>