<svg xmlns="http://www.w3.org/2000/svg" xmlns:xlink="http://www.w3.org/1999/xlink" version="1.1" x="0px" y="0px" viewBox="0 0 107.453 323.57750000000004" style="enable-background:new 0 0 107.453 258.862;" xml:space="preserve"><g><path d="M77.784,134.227c1.816,1.96,2.762,4.506,2.66,7.177c-0.205,5.396-4.593,9.623-9.989,9.623   c-0.126,0-0.256-0.004-0.385-0.008c-4.69-0.177-9.114-0.629-13.285-1.32v9.828h50.668V120.86H56.785v8.497   c4.187,0.915,8.871,1.484,14.043,1.679C73.497,131.134,75.967,132.268,77.784,134.227z"/><rect x="62.785" y="87.667" width="40" height="30.526"/><rect x="66.119" y="55" width="40" height="30.526"/><rect x="62.119" y="22.5" width="40" height="30.526"/><rect x="70.119" width="36" height="21.026"/><ellipse transform="matrix(0.9999 -0.0123 0.0123 0.9999 -0.7129 0.2818)" cx="22.495" cy="57.957" rx="22.495" ry="22.495"/><path d="M22.92,132.667c-8.576-10.041-9.856-21.249-9.856-27.036c0.002-2.64,0.25-4.423,0.356-5.069   c0.815-4.842,4.959-8.351,9.857-8.351c0.555,0,1.113,0.045,1.664,0.139c5.388,0.906,9.075,6.029,8.222,11.423   c-0.006,0.052-0.017,0.147-0.031,0.288c-0.029,0.316-0.064,0.869-0.064,1.57c-0.006,1.657,0.221,5.957,2.436,10.177   c1.055,1.971,2.585,4.276,5.361,6.546c-0.371-5.976-0.539-11.645-0.773-16.548c0.412-10.35-6.078-21.021-14.877-21.049   c-8.797-0.028-19.708,7.429-21.1,22.85c-1.791,21.216-0.076,34.317,7.74,55.271c2.828,6.115,6.369,9.541,10.174,11.3   c1.848,6.434,3.616,15.733,3.619,27.807c0,11.132-1.498,24.651-5.911,40.56c-1.846,6.653,2.051,13.542,8.705,15.387   c6.651,1.846,13.54-2.051,15.386-8.703c5.002-18.027,6.823-33.854,6.821-47.244c0-0.663-0.004-1.323-0.013-1.975   c3.125,7.799,5.227,17.344,5.263,29.126c0,4.757-0.354,9.895-1.152,15.44c-0.984,6.833,3.759,13.17,10.593,14.155   c0.603,0.087,1.204,0.129,1.797,0.129c6.115,0.001,11.46-4.492,12.357-10.721c0.959-6.668,1.406-13.001,1.406-19.003   c0.074-29.986-11.418-51.358-23.019-64.419c-4.146-4.699-8.267-8.398-11.898-11.241c-0.746-2.258-1.381-4.586-1.933-6.955   c-1.058-0.371-2.092-0.765-3.098-1.181C33.58,142.303,27.513,138.039,22.92,132.667z"/><path d="M33.73,116.737c-2.207-4.206-2.672-8.531-2.664-11.106c0-0.788,0.041-1.399,0.074-1.769   c0.018-0.186,0.033-0.31,0.042-0.368c0.004-0.029,0.004-0.033,0.004-0.033c0.685-4.329-2.246-8.411-6.577-9.138   c-4.357-0.731-8.483,2.207-9.214,6.565c-0.058,0.351-0.327,2.075-0.329,4.744c0,5.691,1.236,16.207,9.375,25.738   c4.043,4.727,9.746,9.021,17.273,12.125c0.587,0.243,1.204,0.465,1.814,0.694c3.935,1.477,8.337,2.657,13.258,3.491   c4.091,0.693,8.521,1.16,13.366,1.342c0.101,0.004,0.204,0.006,0.305,0.006c4.28,0,7.826-3.386,7.99-7.699   c0.167-4.415-3.278-8.129-7.693-8.294c-5.384-0.202-10.002-0.785-13.968-1.623c-3.465-0.732-6.432-1.658-8.955-2.702   c-2.722-1.144-4.942-2.396-6.789-3.713C37.388,122.391,35.224,119.531,33.73,116.737z"/></g></svg>